<svg xmlns="http://www.w3.org/2000/svg" viewBox="0 0 128 128">
  <defs>
    <radialGradient id="g" cx="50%" cy="62%" r="75%">
      <stop offset="0%" stop-color="#1b2140"/>
      <stop offset="100%" stop-color="#090b14"/>
    </radialGradient>
  </defs>
  <rect width="128" height="128" rx="28" fill="url(#g)"/>
  <g transform="translate(14.18,101.34) scale(0.09816,-0.09816)">
    <path d="M774 713 795 744Q800 752 809.0 765.0Q818 778 823.0 784.0Q828 790 832 790Q840 790 881.0 754.0Q922 718 938 697Q943 690 943 685Q943 680 938 675Q930 670 918 670H618Q603 670 603 663Q603 655 620 649Q672 631 672 621Q672 618 663 614L659 613Q644 608 638 594L620 551Q617 545 617 540Q617 526 635 526H724Q739 526 749 537L768 558Q773 563 781.5 572.5Q790 582 795.0 586.5Q800 591 804 591Q812 591 847.5 559.0Q883 527 899 505Q903 500 903 494Q903 486 895 482Q892 480 884 478Q866 474 861 458Q807 272 708 153Q702 146 702 139Q702 130 713 124Q808 72 944 46Q964 41 964 36Q963 33 958.5 30.0Q954 27 947 24Q893 -1 877 -67Q874 -84 860 -84L852 -82Q725 -35 638 53Q630 61 623 61Q616 61 608 55Q500 -32 339 -82Q320 -88 317 -82V-80Q317 -75 333 -67Q469 3 565 116Q571 124 571 132Q571 137 566 145Q522 216 489 313Q485 326 474 326Q468 326 461 319Q407 268 353 234Q337 224 332 229L330 233Q330 238 339 250Q399 324 449.0 428.0Q499 532 528 647L529 653Q529 661 523.5 665.5Q518 670 509 670H363Q347 670 347 661Q347 657 351.0 652.5Q355 648 362 645Q420 619 420 609Q420 605 410 602L405 601Q390 597 382 584Q340 511 296 457Q290 450 290 444Q290 435 302 427Q332 405 332 395Q332 389 324 386Q309 379 309 362V182Q311 73 316 -38V-43Q316 -57 306 -63Q290 -74 266.0 -81.5Q242 -89 218 -89Q203 -89 194.5 -83.0Q186 -77 186 -69Q190 -10 193.0 45.5Q196 101 197 191V320Q197 338 185 338Q179 338 171 332Q122 294 73 264Q57 255 52 260Q51 261 51 263Q51 269 61 280Q120 349 176.0 445.5Q232 542 270 646Q272 652 272 655Q272 662 267.0 666.0Q262 670 253 670H206Q153 669 92 659H86Q72 659 66 672L62 680Q59 686 59 692Q59 698 64.0 701.5Q69 705 78 704Q112 701 181 699H417Q438 699 438 720Q436 786 431 829V831Q431 854 455 849Q581 823 581 809Q581 806 573 800L569 797Q556 787 556 772V720Q556 710 561.5 704.5Q567 699 577 699H749Q765 699 774 713ZM585 483 579 472Q576 466 576 461Q576 450 590 444Q639 426 662.5 399.5Q686 373 686 346Q686 323 670.5 307.0Q655 291 633 291Q614 291 599 302Q587 310 586 326Q582 365 566 404Q560 416 552 416Q543 416 536 406L506 368Q499 361 499 351Q499 345 502 339Q542 258 602 203Q608 197 616 197Q625 197 631 207Q704 322 740 474L741 480Q741 488 735.5 492.5Q730 497 721 497H610Q593 497 585 483Z" fill="#ffb45e" opacity="0.35" transform="translate(14,-14)"/>
    <path d="M774 713 795 744Q800 752 809.0 765.0Q818 778 823.0 784.0Q828 790 832 790Q840 790 881.0 754.0Q922 718 938 697Q943 690 943 685Q943 680 938 675Q930 670 918 670H618Q603 670 603 663Q603 655 620 649Q672 631 672 621Q672 618 663 614L659 613Q644 608 638 594L620 551Q617 545 617 540Q617 526 635 526H724Q739 526 749 537L768 558Q773 563 781.5 572.5Q790 582 795.0 586.5Q800 591 804 591Q812 591 847.5 559.0Q883 527 899 505Q903 500 903 494Q903 486 895 482Q892 480 884 478Q866 474 861 458Q807 272 708 153Q702 146 702 139Q702 130 713 124Q808 72 944 46Q964 41 964 36Q963 33 958.5 30.0Q954 27 947 24Q893 -1 877 -67Q874 -84 860 -84L852 -82Q725 -35 638 53Q630 61 623 61Q616 61 608 55Q500 -32 339 -82Q320 -88 317 -82V-80Q317 -75 333 -67Q469 3 565 116Q571 124 571 132Q571 137 566 145Q522 216 489 313Q485 326 474 326Q468 326 461 319Q407 268 353 234Q337 224 332 229L330 233Q330 238 339 250Q399 324 449.0 428.0Q499 532 528 647L529 653Q529 661 523.5 665.5Q518 670 509 670H363Q347 670 347 661Q347 657 351.0 652.5Q355 648 362 645Q420 619 420 609Q420 605 410 602L405 601Q390 597 382 584Q340 511 296 457Q290 450 290 444Q290 435 302 427Q332 405 332 395Q332 389 324 386Q309 379 309 362V182Q311 73 316 -38V-43Q316 -57 306 -63Q290 -74 266.0 -81.5Q242 -89 218 -89Q203 -89 194.5 -83.0Q186 -77 186 -69Q190 -10 193.0 45.5Q196 101 197 191V320Q197 338 185 338Q179 338 171 332Q122 294 73 264Q57 255 52 260Q51 261 51 263Q51 269 61 280Q120 349 176.0 445.5Q232 542 270 646Q272 652 272 655Q272 662 267.0 666.0Q262 670 253 670H206Q153 669 92 659H86Q72 659 66 672L62 680Q59 686 59 692Q59 698 64.0 701.5Q69 705 78 704Q112 701 181 699H417Q438 699 438 720Q436 786 431 829V831Q431 854 455 849Q581 823 581 809Q581 806 573 800L569 797Q556 787 556 772V720Q556 710 561.5 704.5Q567 699 577 699H749Q765 699 774 713ZM585 483 579 472Q576 466 576 461Q576 450 590 444Q639 426 662.5 399.5Q686 373 686 346Q686 323 670.5 307.0Q655 291 633 291Q614 291 599 302Q587 310 586 326Q582 365 566 404Q560 416 552 416Q543 416 536 406L506 368Q499 361 499 351Q499 345 502 339Q542 258 602 203Q608 197 616 197Q625 197 631 207Q704 322 740 474L741 480Q741 488 735.5 492.5Q730 497 721 497H610Q593 497 585 483Z" fill="#eef0f6"/>
  </g>
</svg>